<svg width="71" height="50" viewBox="0 0 71 50" fill="none" xmlns="http://www.w3.org/2000/svg">
<rect x="45.834" width="4.16667" height="4.16667" fill="#4C2A3A"/>
<rect x="45.8008" y="4.16667" width="4.16667" height="4.16667" fill="#EDFEDE"/>
<rect x="45.8008" y="12.5" width="4.16667" height="4.16667" fill="#EDFEDE"/>
<rect x="29.166" y="37.5" width="4.16667" height="4.16667" fill="#E58215"/>
<rect width="4.16667" height="4.16667" transform="matrix(-1 0 0 1 20.832 12.5)" fill="#D4BF26"/>
<rect x="41.668" y="8.33334" width="4.16667" height="4.16667" fill="#EDFEDE"/>
<rect x="20.832" y="33.3333" width="4.16667" height="4.16667" fill="#E58215"/>
<rect width="4.16667" height="4.16667" transform="matrix(-1 0 0 1 29.166 8.33334)" fill="#D4BF26"/>
<rect width="4.16667" height="4.16667" transform="matrix(-1 0 0 1 29.166 4.16667)" fill="#E3EBBD"/>
<rect width="4.16667" height="4.16667" transform="matrix(-1 0 0 1 33.334 8.33334)" fill="#D4BF26"/>
<rect width="4.16667" height="4.16667" transform="matrix(-1 0 0 1 33.334 4.16667)" fill="#E3EBBD"/>
<rect width="4.16667" height="4.16667" transform="matrix(-1 0 0 1 37.5 4.16667)" fill="#E3EBBD"/>
<rect x="41.668" y="16.6667" width="4.16667" height="4.16667" fill="#EDFEDE"/>
<rect x="25" y="41.6667" width="4.16667" height="4.16667" fill="#E58215"/>
<rect width="4.16667" height="4.16667" transform="matrix(-1 0 0 1 25 16.6667)" fill="#D4BF26"/>
<rect width="4.16667" height="4.16667" transform="matrix(-1 0 0 1 25 20.8333)" fill="#D4BF26"/>
<rect x="20.832" y="41.6667" width="4.16667" height="4.16667" fill="#E58215"/>
<rect width="4.16667" height="4.16667" transform="matrix(-1 0 0 1 29.166 16.6667)" fill="#D4BF26"/>
<rect width="4.16667" height="4.16667" transform="matrix(-1 0 0 1 29.166 20.8333)" fill="#D4BF26"/>
<rect width="4.16667" height="4.16667" transform="matrix(-1 0 0 1 33.334 16.6667)" fill="#D4BF26"/>
<rect width="4.16667" height="4.16667" transform="matrix(-1 0 0 1 33.334 20.8333)" fill="#D4BF26"/>
<rect width="4.16667" height="4.16667" transform="matrix(-1 0 0 1 37.5 20.8333)" fill="#D4BF26"/>
<rect width="4.16667" height="4.16667" transform="matrix(-1 0 0 1 37.5 25)" fill="#D4BF26"/>
<rect width="4.16667" height="4.16667" transform="matrix(-1 0 0 1 41.668 25)" fill="#D4BF26"/>
<rect width="4.16667" height="4.16667" transform="matrix(-1 0 0 1 33.334 25)" fill="#D4BF26"/>
<rect width="4.16667" height="4.16667" transform="matrix(-1 0 0 1 29.166 25)" fill="#D4BF26"/>
<rect width="4.16667" height="4.16667" transform="matrix(-1 0 0 1 33.334 29.1667)" fill="#D4BF26"/>
<rect width="4.16667" height="4.16667" transform="matrix(-1 0 0 1 37.5 29.1667)" fill="#D4BF26"/>
<rect x="33.334" y="41.6667" width="4.16667" height="4.16667" fill="#E58215"/>
<rect width="4.16667" height="4.16667" transform="matrix(-1 0 0 1 16.668 16.6667)" fill="#D4BF26"/>
<rect width="4.16667" height="4.16667" transform="matrix(-1 0 0 1 16.668 20.8333)" fill="#D4BF26"/>
<rect x="49.9688" y="8.33334" width="4.16667" height="4.16667" fill="#EDFEDE"/>
<rect x="37.5" width="4.16667" height="4.16667" fill="#4C2A3A"/>
<rect x="29.166" width="4.16667" height="4.16667" fill="#4C2A3A"/>
<rect x="20.832" y="4.16667" width="4.16667" height="4.16667" fill="#4C2A3A"/>
<rect x="50.002" y="4.16667" width="4.16667" height="4.16667" fill="#4C2A3A"/>
<rect x="54.1348" y="8.33334" width="4.16667" height="4.16667" fill="#4C2A3A"/>
<rect x="49.9688" y="12.5" width="4.16667" height="4.16667" fill="#4C2A3A"/>
<rect x="49.9688" y="16.6667" width="4.16667" height="4.16667" fill="#4C2A3A"/>
<rect x="58.3027" y="12.5" width="4.16667" height="4.16667" fill="#4C2A3A"/>
<rect x="58.3027" y="16.6667" width="4.16667" height="4.16667" fill="#4C2A3A"/>
<rect x="58.3027" y="20.8333" width="4.16667" height="4.16667" fill="#4C2A3A"/>
<rect x="58.3027" y="25" width="4.16667" height="4.16667" fill="#4C2A3A"/>
<rect x="58.332" y="29.1667" width="4.16667" height="4.16667" fill="#EE5140"/>
<rect x="58.332" y="37.5" width="4.16667" height="4.16667" fill="#EE5140"/>
<rect x="49.9688" y="25" width="4.16667" height="4.16667" fill="#4C2A3A"/>
<rect x="50.002" y="29.1667" width="4.16667" height="4.16667" fill="#EE5140"/>
<rect x="50.002" y="37.5" width="4.16667" height="4.16667" fill="#EE5140"/>
<rect x="41.668" y="25" width="4.16667" height="4.16667" fill="#4C2A3A"/>
<rect x="41.668" y="29.1667" width="4.16667" height="4.16667" fill="#EE5140"/>
<rect x="41.668" y="37.5" width="4.16667" height="4.16667" fill="#EE5140"/>
<rect x="37.5" y="33.3333" width="4.16667" height="4.16667" fill="#EE5140"/>
<rect x="41.668" y="20.8333" width="4.16667" height="4.16667" fill="#C9C2C1"/>
<rect x="37.5" y="20.8333" width="4.16667" height="4.16667" fill="#4C2A3A"/>
<rect x="33.334" y="16.6667" width="4.16667" height="4.16667" fill="#4C2A3A"/>
<rect x="37.5" y="16.6667" width="4.16667" height="4.16667" fill="#C9C2C1"/>
<rect x="33.334" y="12.5" width="4.16667" height="4.16667" fill="#4C2A3A"/>
<rect x="37.5" y="12.5" width="4.16667" height="4.16667" fill="#C9C2C1"/>
<rect x="33.334" y="8.33334" width="4.16667" height="4.16667" fill="#4C2A3A"/>
<rect x="62.4688" y="25" width="4.16667" height="4.16667" fill="#4C2A3A"/>
<rect x="62.5" y="29.1667" width="4.16667" height="4.16667" fill="#EE5140"/>
<rect x="66.666" y="29.1667" width="4.16667" height="4.16667" fill="#4C2A3A"/>
<rect x="37.5" y="29.1667" width="4.16667" height="4.16667" fill="#4C2A3A"/>
<rect x="33.334" y="33.3333" width="4.16667" height="4.16667" fill="#4C2A3A"/>
<rect x="62.5" y="33.3333" width="4.16667" height="4.16667" fill="#4C2A3A"/>
<rect x="54.166" y="33.3333" width="4.16667" height="4.16667" fill="#4C2A3A"/>
<rect x="45.834" y="33.3333" width="4.16667" height="4.16667" fill="#4C2A3A"/>
<rect x="58.332" y="33.3333" width="4.16667" height="4.16667" fill="#4C2A3A"/>
<rect x="50.002" y="33.3333" width="4.16667" height="4.16667" fill="#4C2A3A"/>
<rect x="41.668" y="33.3333" width="4.16667" height="4.16667" fill="#4C2A3A"/>
<rect x="62.4688" y="37.5" width="4.16667" height="4.16667" fill="#4C2A3A"/>
<rect x="58.332" y="41.6667" width="4.16667" height="4.16667" fill="#4C2A3A"/>
<rect x="37.5" y="45.8333" width="4.16667" height="4.16667" fill="#4C2A3A"/>
<rect x="54.166" y="41.6667" width="4.16667" height="4.16667" fill="#4C2A3A"/>
<rect x="33.334" y="45.8333" width="4.16667" height="4.16667" fill="#4C2A3A"/>
<rect x="45.834" y="41.6667" width="4.16667" height="4.16667" fill="#4C2A3A"/>
<rect x="25" y="45.8333" width="4.16667" height="4.16667" fill="#4C2A3A"/>
<rect x="50.002" y="41.6667" width="4.16667" height="4.16667" fill="#4C2A3A"/>
<rect x="29.166" y="45.8333" width="4.16667" height="4.16667" fill="#4C2A3A"/>
<rect x="41.668" y="41.6667" width="4.16667" height="4.16667" fill="#4C2A3A"/>
<rect x="20.832" y="45.8333" width="4.16667" height="4.16667" fill="#4C2A3A"/>
<rect x="37.5" y="37.5" width="4.16667" height="4.16667" fill="#4C2A3A"/>
<rect x="54.1348" y="25" width="4.16667" height="4.16667" fill="#4C2A3A"/>
<rect x="54.166" y="29.1667" width="4.16667" height="4.16667" fill="#EE5140"/>
<rect x="54.166" y="37.5" width="4.16667" height="4.16667" fill="#EE5140"/>
<rect x="45.8008" y="25" width="4.16667" height="4.16667" fill="#4C2A3A"/>
<rect x="45.834" y="29.1667" width="4.16667" height="4.16667" fill="#EE5140"/>
<rect x="45.834" y="37.5" width="4.16667" height="4.16667" fill="#EE5140"/>
<rect x="41.668" width="4.16667" height="4.16667" fill="#4C2A3A"/>
<rect x="41.6367" y="4.16667" width="4.16667" height="4.16667" fill="#EDFEDE"/>
<rect x="41.6367" y="12.5" width="4.16667" height="4.16667" fill="#EDFEDE"/>
<rect x="25" y="37.5" width="4.16667" height="4.16667" fill="#E58215"/>
<rect width="4.16667" height="4.16667" transform="matrix(-1 0 0 1 25 12.5)" fill="#D4BF26"/>
<rect x="20.832" y="37.5" width="4.16667" height="4.16667" fill="#E58215"/>
<rect width="4.16667" height="4.16667" transform="matrix(-1 0 0 1 29.166 12.5)" fill="#D4BF26"/>
<rect width="4.16667" height="4.16667" transform="matrix(-1 0 0 1 33.334 12.5)" fill="#D4BF26"/>
<rect x="33.334" y="37.5" width="4.16667" height="4.16667" fill="#E58215"/>
<rect width="4.16667" height="4.16667" transform="matrix(-1 0 0 1 16.668 12.5)" fill="#E3EBBD"/>
<rect x="37.5" y="8.33334" width="4.16667" height="4.16667" fill="#EDFEDE"/>
<rect x="45.8008" y="8.33334" width="4.16667" height="4.16667" fill="#EDFEDE"/>
<rect x="25" y="33.3333" width="4.16667" height="4.16667" fill="#E58215"/>
<rect x="29.166" y="33.3333" width="4.16667" height="4.16667" fill="#E58215"/>
<rect width="4.16667" height="4.16667" transform="matrix(-1 0 0 1 25 8.33334)" fill="#E3EBBD"/>
<rect width="4.16667" height="4.16667" transform="matrix(-1 0 0 1 20.832 8.33334)" fill="#E3EBBD"/>
<rect x="45.8008" y="16.6667" width="4.16667" height="4.16667" fill="#EDFEDE"/>
<rect x="29.166" y="41.6667" width="4.16667" height="4.16667" fill="#E58215"/>
<rect width="4.16667" height="4.16667" transform="matrix(-1 0 0 1 20.832 16.6667)" fill="#D4BF26"/>
<rect width="4.16667" height="4.16667" transform="matrix(-1 0 0 1 20.832 20.8333)" fill="#D4BF26"/>
<rect x="37.5" y="41.6667" width="4.16667" height="4.16667" fill="#E58215"/>
<rect width="4.16667" height="4.16667" transform="matrix(-1 0 0 1 12.5 16.6667)" fill="#D4BF26"/>
<rect width="4.16667" height="4.16667" transform="matrix(-1 0 0 1 12.5 20.8333)" fill="#D4BF26"/>
<rect width="4.16667" height="4.16667" transform="matrix(-1 0 0 1 8.33398 29.1667)" fill="#D4BF26"/>
<rect width="4.16667" height="4.16667" transform="matrix(-1 0 0 1 25 29.1667)" fill="#D4BF26"/>
<rect width="4.16667" height="4.16667" transform="matrix(-1 0 0 1 16.668 37.5)" fill="#D4BF26"/>
<rect width="4.16667" height="4.16667" transform="matrix(-1 0 0 1 20.8008 33.3333)" fill="#EDFEDE"/>
<rect width="4.16667" height="4.16667" transform="matrix(-1 0 0 1 16.668 33.3333)" fill="#EDFEDE"/>
<rect width="4.16667" height="4.16667" transform="matrix(-1 0 0 1 12.5 33.3333)" fill="#EDFEDE"/>
<rect width="4.16667" height="4.16667" transform="matrix(-1 0 0 1 8.36523 37.5)" fill="#EDFEDE"/>
<rect width="4.16667" height="4.16667" transform="matrix(-1 0 0 1 12.5 37.5)" fill="#EDFEDE"/>
<rect width="4.16667" height="4.16667" transform="matrix(-1 0 0 1 20.832 29.1667)" fill="#EDFEDE"/>
<rect width="4.16667" height="4.16667" transform="matrix(-1 0 0 1 16.668 29.1667)" fill="#EDFEDE"/>
<rect width="4.16667" height="4.16667" transform="matrix(-1 0 0 1 12.5 29.1667)" fill="#EDFEDE"/>
<rect width="4.16667" height="4.16667" transform="matrix(-1 0 0 1 8.33398 33.3333)" fill="#EDFEDE"/>
<rect x="45.8008" y="20.8333" width="4.16667" height="4.16667" fill="#EDFEDE"/>
<rect x="49.9688" y="20.8333" width="4.16667" height="4.16667" fill="#EDFEDE"/>
<rect x="54.1348" y="20.8333" width="4.16667" height="4.16667" fill="#EDFEDE"/>
<rect x="54.1348" y="16.6667" width="4.16667" height="4.16667" fill="#EDFEDE"/>
<rect x="54.1348" y="12.5" width="4.16667" height="4.16667" fill="#EDFEDE"/>
<rect x="33.334" width="4.16667" height="4.16667" fill="#4C2A3A"/>
<rect x="25" width="4.16667" height="4.16667" fill="#4C2A3A"/>
<rect x="16.668" y="4.16667" width="4.16667" height="4.16667" fill="#4C2A3A"/>
<rect x="12.5" y="8.33334" width="4.16667" height="4.16667" fill="#4C2A3A"/>
<rect x="8.33398" y="12.5" width="4.16667" height="4.16667" fill="#4C2A3A"/>
<rect x="4.16797" y="16.6667" width="4.16667" height="4.16667" fill="#4C2A3A"/>
<rect x="4.16797" y="20.8333" width="4.16667" height="4.16667" fill="#4C2A3A"/>
<rect x="4.16797" y="25" width="4.16667" height="4.16667" fill="#4C2A3A"/>
<rect x="12.5" y="25" width="4.16667" height="4.16667" fill="#4C2A3A"/>
<rect x="8.33398" y="25" width="4.16667" height="4.16667" fill="#4C2A3A"/>
<rect x="16.668" y="25" width="4.16667" height="4.16667" fill="#4C2A3A"/>
<rect x="20.832" y="25" width="4.16667" height="4.16667" fill="#4C2A3A"/>
<rect x="25" y="29.1667" width="4.16667" height="4.16667" fill="#4C2A3A"/>
<rect x="20.832" y="33.3333" width="4.16667" height="4.16667" fill="#4C2A3A"/>
<rect x="16.668" y="37.5" width="4.16667" height="4.16667" fill="#4C2A3A"/>
<rect x="16.668" y="41.6667" width="4.16667" height="4.16667" fill="#4C2A3A"/>
<rect x="8.33398" y="41.6667" width="4.16667" height="4.16667" fill="#4C2A3A"/>
<rect x="12.5" y="41.6667" width="4.16667" height="4.16667" fill="#4C2A3A"/>
<rect x="4.16797" y="41.6667" width="4.16667" height="4.16667" fill="#4C2A3A"/>
<rect y="37.5" width="4.16667" height="4.16667" fill="#4C2A3A"/>
<rect y="33.3333" width="4.16667" height="4.16667" fill="#4C2A3A"/>
<rect y="29.1667" width="4.16667" height="4.16667" fill="#4C2A3A"/>
<rect x="37.5" y="4.16667" width="4.16667" height="4.16667" fill="#4C2A3A"/>
</svg>
