<svg width="150" height="280" viewBox="0 0 150 280" fill="none" xmlns="http://www.w3.org/2000/svg">
<rect x="150" y="280" width="149.326" height="4.33437" transform="rotate(-180 150 280)" fill="#005E04"/>
<rect x="143.937" y="280" width="143.937" height="4.33437" transform="rotate(-180 143.937 280)" fill="#005D04"/>
<rect x="150" y="275.666" width="6.06287" height="64.4376" transform="rotate(-180 150 275.666)" fill="#005D04"/>
<rect x="143.937" y="275.666" width="13.9222" height="64.4376" transform="rotate(-180 143.937 275.666)" fill="#00820C"/>
<rect x="130.015" y="275.666" width="4.49102" height="64.4376" transform="rotate(-180 130.015 275.666)" fill="#00B313"/>
<rect x="125.524" y="275.666" width="2.69461" height="64.4376" transform="rotate(-180 125.524 275.666)" fill="#00820C"/>
<rect x="122.829" y="275.666" width="62.8743" height="64.4376" transform="rotate(-180 122.829 275.666)" fill="#00B313"/>
<rect x="59.9551" y="275.666" width="24.2515" height="64.4376" transform="rotate(-180 59.9551 275.666)" fill="#00D818"/>
<rect x="30.5389" y="275.666" width="14.3713" height="64.4376" transform="rotate(-180 30.5389 275.666)" fill="#00D818"/>
<rect x="16.1677" y="275.666" width="12.7994" height="64.4376" transform="rotate(-180 16.1677 275.666)" fill="#00C116"/>
<rect x="3.36829" y="275.666" width="3.36826" height="64.4376" transform="rotate(-180 3.36829 275.666)" fill="#005E04"/>
<rect x="35.7036" y="275.666" width="5.16467" height="64.4376" transform="rotate(-180 35.7036 275.666)" fill="#00C116"/>
<rect x="150" y="211.228" width="150" height="4.33437" transform="rotate(-180 150 211.228)" fill="#005E04"/>
<rect x="132.934" y="206.894" width="5.16467" height="206.894" transform="rotate(-180 132.934 206.894)" fill="#005E04"/>
<rect x="128" y="207" width="5" height="207" transform="rotate(-180 128 207)" fill="#00820C"/>
<rect x="123" y="207" width="10" height="207" transform="rotate(-180 123 207)" fill="#00820C"/>
<rect x="113" y="207" width="3" height="207" transform="rotate(-180 113 207)" fill="#00B313"/>
<rect x="110" y="207" width="4" height="207" transform="rotate(-180 110 207)" fill="#00820C"/>
<rect x="44.9102" y="206.894" width="0.449102" height="206.894" transform="rotate(-180 44.9102 206.894)" fill="#C4C4C4"/>
<rect x="38.6227" y="206.894" width="0.673653" height="206.894" transform="rotate(-180 38.6227 206.894)" fill="#C4C4C4"/>
<rect x="30.3144" y="206.894" width="0.898204" height="206.894" transform="rotate(-180 30.3144 206.894)" fill="#C4C4C4"/>
<rect x="20.2096" y="206.894" width="0.449102" height="206.894" transform="rotate(-180 20.2096 206.894)" fill="#C4C4C4"/>
<rect x="106" y="207" width="41" height="207" transform="rotate(-180 106 207)" fill="#00B313"/>
<rect x="65" y="207" width="21" height="207" transform="rotate(-180 65 207)" fill="#00D818"/>
<rect x="44" y="207" width="5" height="207" transform="rotate(-180 44 207)" fill="#00C116"/>
<rect x="39" y="207" width="9" height="207" transform="rotate(-180 39 207)" fill="#00D818"/>
<rect x="30" y="207" width="10" height="207" transform="rotate(-180 30 207)" fill="#00C116"/>
<rect x="20" y="207" width="4" height="207" transform="rotate(-180 20 207)" fill="#005D04"/>
</svg>
