<svg width="150" height="280" viewBox="0 0 150 280" fill="none" xmlns="http://www.w3.org/2000/svg">
<rect width="149.326" height="4.33437" fill="#005E04"/>
<rect x="6.06288" width="143.937" height="4.33437" fill="#005D04"/>
<rect y="4.33435" width="6.06287" height="64.4376" fill="#005D04"/>
<rect x="6.06288" y="4.33435" width="13.9222" height="64.4376" fill="#00820C"/>
<rect x="19.985" y="4.33435" width="4.49102" height="64.4376" fill="#00B313"/>
<rect x="24.476" y="4.33435" width="2.69461" height="64.4376" fill="#00820C"/>
<rect x="27.1707" y="4.33435" width="62.8743" height="64.4376" fill="#00B313"/>
<rect x="90.0449" y="4.33435" width="24.2515" height="64.4376" fill="#00D818"/>
<rect x="119.461" y="4.33435" width="14.3713" height="64.4376" fill="#00D818"/>
<rect x="133.832" y="4.33435" width="12.7994" height="64.4376" fill="#00C116"/>
<rect x="146.632" y="4.33435" width="3.36826" height="64.4376" fill="#005E04"/>
<rect x="114.296" y="4.33435" width="5.16467" height="64.4376" fill="#00C116"/>
<rect y="68.7719" width="150" height="4.33437" fill="#005E04"/>
<rect x="17.0659" y="73.1063" width="5.16467" height="206.894" fill="#005E04"/>
<rect x="22" y="73" width="5" height="207" fill="#00820C"/>
<rect x="27" y="73" width="10" height="207" fill="#00820C"/>
<rect x="37" y="73" width="3" height="207" fill="#00B313"/>
<rect x="40" y="73" width="4" height="207" fill="#00820C"/>
<rect x="105.09" y="73.1063" width="0.449102" height="206.894" fill="#C4C4C4"/>
<rect x="111.377" y="73.1063" width="0.673653" height="206.894" fill="#C4C4C4"/>
<rect x="119.686" y="73.1063" width="0.898204" height="206.894" fill="#C4C4C4"/>
<rect x="129.79" y="73.1063" width="0.449102" height="206.894" fill="#C4C4C4"/>
<rect x="44" y="73" width="41" height="207" fill="#00B313"/>
<rect x="85" y="73" width="21" height="207" fill="#00D818"/>
<rect x="106" y="73" width="5" height="207" fill="#00C116"/>
<rect x="111" y="73" width="9" height="207" fill="#00D818"/>
<rect x="120" y="73" width="10" height="207" fill="#00C116"/>
<rect x="130" y="73" width="4" height="207" fill="#005D04"/>
</svg>
